<svg width="20" height="20" viewBox="0 0 20 20" fill="none" xmlns="http://www.w3.org/2000/svg">
<path d="M2.5 10.625H5.625L6.875 8.75L9.375 12.5L10.625 10.625H12.5" stroke="#1A3380" stroke-width="1.5" stroke-linecap="round" stroke-linejoin="round"/>
<path d="M1.875 8.125C1.875 8.07266 1.875 8.02109 1.875 7.96875C1.875 6.84987 2.31947 5.77681 3.11064 4.98564C3.90181 4.19447 4.97487 3.75 6.09375 3.75C7.85859 3.75 9.37031 4.71172 10 6.25C10.6297 4.71172 12.1414 3.75 13.9062 3.75C15.0251 3.75 16.0982 4.19447 16.8894 4.98564C17.6805 5.77681 18.125 6.84987 18.125 7.96875C18.125 13.125 10 17.5 10 17.5C10 17.5 6.71875 15.7344 4.32969 13.125" stroke="#1A3380" stroke-width="1.5" stroke-linecap="round" stroke-linejoin="round"/>
</svg>
