<svg preserveAspectRatio="none" overflow="visible" style="display: block;" width="19" height="12" viewBox="0 0 19 12" fill="none" xmlns="http://www.w3.org/2000/svg">
<path id="SF Symbol / textformat.size" d="M9.77941 12C10.3063 12 10.5857 11.776 10.7613 11.216L11.6555 8.72H16.2139L17.1 11.216C17.2756 11.776 17.555 12 18.0819 12C18.6408 12 19 11.664 19 11.136C19 10.944 18.9681 10.784 18.8962 10.568L15.3517 1C15.1122 0.328 14.6651 0 13.9387 0C13.2441 0 12.7891 0.328 12.5576 0.992L8.99706 10.608C8.92521 10.816 8.89328 10.984 8.89328 11.152C8.89328 11.68 9.22857 12 9.77941 12ZM12.1105 7.24L13.9147 2.04H13.9626L15.7668 7.24H12.1105ZM0.814286 11.976C1.22941 11.976 1.48487 11.76 1.63655 11.264L2.21134 9.544H5.31681L5.88361 11.272C6.03529 11.776 6.29874 11.976 6.72983 11.976C7.20882 11.976 7.53613 11.672 7.53613 11.216C7.53613 11.032 7.49622 10.848 7.42437 10.64L5.00546 4.16C4.77395 3.528 4.36681 3.224 3.7521 3.224C3.16134 3.224 2.76218 3.52 2.53067 4.16L0.111765 10.64C0.039916 10.832 0 11.04 0 11.216C0 11.688 0.311345 11.976 0.814286 11.976ZM2.59454 8.296L3.66429 4.96H3.83992L4.92563 8.296H2.59454Z" fill="#262626"/>
</svg>
